<svg id="Group_25" data-name="Group 25" xmlns="http://www.w3.org/2000/svg" xmlns:xlink="http://www.w3.org/1999/xlink" width="94.763" height="103.343" viewBox="0 0 94.763 103.343">
  <defs>
    <clipPath id="clip-path">
      <rect id="Rectangle_20" data-name="Rectangle 20" width="94.763" height="103.343" fill="#2b488b"/>
    </clipPath>
  </defs>
  <g id="Group_24" data-name="Group 24" clip-path="url(#clip-path)">
    <path id="Path_74" data-name="Path 74" d="M28.2,237.476a4.514,4.514,0,0,1-3.41-3.931,4.305,4.305,0,0,1,4.511-4.689c4.171-.03,8.343-.008,12.515-.009h1.186V218.1H41.859c-8.209,0-16.419-.1-24.625.042a8.856,8.856,0,0,1-8.607-8.514c-.006-4.339.014-8.678-.013-13.017a4.239,4.239,0,0,0-4.237-4.347A4.337,4.337,0,0,1,0,187.819a4.382,4.382,0,0,1,4.852-4.164,12.948,12.948,0,0,1,12.364,12.226c.028.328.052.657.073.917a39.418,39.418,0,0,1,4.2-1.866,12,12,0,0,1,3.573-.479c14.87-.03,29.739-.011,44.609-.028a12.057,12.057,0,0,1,7.278,2.269,3.749,3.749,0,0,0,.445.235c.153-1.094.235-2.13.449-3.137a12.957,12.957,0,0,1,12.354-10.149,4.313,4.313,0,1,1,.283,8.62,4.257,4.257,0,0,0-4.344,4.548c-.012,4.07,0,8.14,0,12.21a8.8,8.8,0,0,1-6.418,8.865,5.151,5.151,0,0,1-1.584.206q-12.565.018-25.13.009H51.741v10.7c.384.017.742.046,1.1.046q6.207,0,12.414,0a4.722,4.722,0,0,1,3.268,1.093,4.3,4.3,0,0,1-1.053,7.14c-.3.139-.606.266-.91.4Z" transform="translate(0 -134.133)" fill="#2b488b"/>
    <path id="Path_75" data-name="Path 75" d="M96.36,55.961c-7.166,0-14.331.015-21.5-.005a7.4,7.4,0,0,1-7.646-5.993,7.769,7.769,0,0,1-.065-2.8c1.663-9.77,3.378-19.531,5.078-29.294.64-3.674,1.3-7.343,1.913-11.022C74.857,2.529,77.764.005,82.125,0Q96.355,0,110.586,0c4.368,0,7.247,2.527,7.988,6.836q3.149,18.326,6.367,36.64c.213,1.225.448,2.446.639,3.674a7.5,7.5,0,0,1-7.622,8.8c-7.2.039-14.4.01-21.6.01" transform="translate(-48.977 0)" fill="#2b488b"/>
  </g>
</svg>
