<svg id="Group_2" data-name="Group 2" xmlns="http://www.w3.org/2000/svg" xmlns:xlink="http://www.w3.org/1999/xlink" width="105.5" height="105.5" viewBox="0 0 105.5 105.5">
  <defs>
    <clipPath id="clip-path">
      <rect id="Rectangle_5" data-name="Rectangle 5" width="105.5" height="105.5" fill="none"/>
    </clipPath>
  </defs>
  <g id="Group_1" data-name="Group 1" clip-path="url(#clip-path)">
    <path id="Path_1" data-name="Path 1" d="M11.637,56.852l4.025,1.733L15.5,59.631l-2.792.294a2.278,2.278,0,0,1-.48,0l0,.011a2.973,2.973,0,0,1,.459.148l2.581,1.114-.164,1.09-4.354.474.155-1.03,2.878-.174a3.4,3.4,0,0,1,.488.016l0-.017A2.382,2.382,0,0,1,13.8,61.4L11.133,60.22l.15-1.01,2.918-.266a3.508,3.508,0,0,1,.46,0l0-.011A3.348,3.348,0,0,1,14.2,58.8l-2.711-1Z" transform="translate(-2.637 -13.94)" fill="#fff"/>
    <path id="Path_2" data-name="Path 2" d="M14.648,52.156l2.825,2.053q1.019.74.781,1.6a1.712,1.712,0,0,1-.222.518l-.718-.2a.775.775,0,0,0,.214-.362.506.506,0,0,0-.2-.574l-.319-.252-3.237.383.273-1,1.924-.056a2.455,2.455,0,0,1,.413.029l0-.012a3.088,3.088,0,0,1-.357-.2L14.4,53.048Z" transform="translate(-3.378 -12.788)" fill="#fff"/>
    <path id="Path_3" data-name="Path 3" d="M14.909,49.3a.466.466,0,0,1-.223.266.37.37,0,0,1-.312.022.357.357,0,0,1-.226-.22.474.474,0,0,1,.008-.342.461.461,0,0,1,.215-.266.365.365,0,0,1,.312-.02.372.372,0,0,1,.229.217.463.463,0,0,1,0,.343m3.728,0-.926,2.553-.363-.133-1.315-2.093-.467,1.286-.647-.236.872-2.4.433.157L17.5,50.426l.494-1.363Z" transform="translate(-3.462 -11.837)" fill="#fff"/>
    <path id="Path_4" data-name="Path 4" d="M19.441,48.073l-.691-.309a1.919,1.919,0,0,0,.377-.336,1.474,1.474,0,0,0,.239-.366.933.933,0,0,0,.1-.385.218.218,0,0,0-.13-.214.189.189,0,0,0-.162,0,.6.6,0,0,0-.163.11,1.881,1.881,0,0,0-.164.171,2.27,2.27,0,0,1-.169.18,2.194,2.194,0,0,1-.262.231.937.937,0,0,1-.26.137.708.708,0,0,1-.277.031.955.955,0,0,1-.312-.087.827.827,0,0,1-.355-.279.9.9,0,0,1-.153-.392,1.341,1.341,0,0,1,.016-.457,2.231,2.231,0,0,1,.152-.474,2.959,2.959,0,0,1,.444-.694l.658.294a1.551,1.551,0,0,0-.3.282,1.743,1.743,0,0,0-.208.342.916.916,0,0,0-.055.165.577.577,0,0,0-.016.152.25.25,0,0,0,.034.12.173.173,0,0,0,.086.078.2.2,0,0,0,.151.01.474.474,0,0,0,.149-.086,1.239,1.239,0,0,0,.148-.143c.05-.054.1-.108.149-.161a2.789,2.789,0,0,1,.267-.251,1.112,1.112,0,0,1,.27-.162.721.721,0,0,1,.288-.051.966.966,0,0,1,.7.377.923.923,0,0,1,.157.41,1.379,1.379,0,0,1-.023.478,2.461,2.461,0,0,1-.164.5,2.723,2.723,0,0,1-.517.782" transform="translate(-4.179 -11.018)" fill="#fff"/>
    <path id="Path_5" data-name="Path 5" d="M22.193,42.305,20.91,44.7l-.34-.183-1-2.259-.647,1.2-.606-.325,1.206-2.249.405.218.974,2.154.684-1.277Z" transform="translate(-4.491 -10.025)" fill="#fff"/>
    <path id="Path_6" data-name="Path 6" d="M24.467,38.855l-.477.743-.365-.235-.008.009a.984.984,0,0,1-.06,1.032.939.939,0,0,1-.586.449.894.894,0,0,1-.7-.148,1,1,0,0,1-.29-1.427l.352-.75a.457.457,0,0,0-.707.185,1.824,1.824,0,0,0-.286,1.039l-.593-.381a2.316,2.316,0,0,1,.14-.543,2.707,2.707,0,0,1,.269-.56,1.141,1.141,0,0,1,1.786-.39Zm-1.507.073-.172-.11-.239.5c-.131.276-.1.477.1.6a.336.336,0,0,0,.279.048.428.428,0,0,0,.249-.2.556.556,0,0,0,.079-.458.663.663,0,0,0-.3-.388" transform="translate(-5.088 -9.22)" fill="#fff"/>
    <path id="Path_7" data-name="Path 7" d="M26.59,34.968l-.724-.607a1.843,1.843,0,0,0,.607-.22,1.875,1.875,0,0,0,.475-.4,1.445,1.445,0,0,0,.177-.263.751.751,0,0,0,.075-.229.4.4,0,0,0-.018-.191.333.333,0,0,0-.1-.143.369.369,0,0,0-.216-.088.743.743,0,0,0-.263.033,1.941,1.941,0,0,0-.307.119c-.112.052-.231.112-.355.177a1.864,1.864,0,0,1-.862.243,1.1,1.1,0,0,1-.71-.277,1.093,1.093,0,0,1-.417-1,1.623,1.623,0,0,1,.168-.55,2.734,2.734,0,0,1,.355-.536,4.037,4.037,0,0,1,.407-.423,2.356,2.356,0,0,1,.4-.282l.677.567a1.562,1.562,0,0,0-.248.094,2.045,2.045,0,0,0-.237.138,1.907,1.907,0,0,0-.212.168,1.675,1.675,0,0,0-.174.179,1.319,1.319,0,0,0-.166.248.732.732,0,0,0-.078.227.434.434,0,0,0,.012.194.313.313,0,0,0,.1.152.323.323,0,0,0,.183.079.607.607,0,0,0,.224-.019,1.648,1.648,0,0,0,.276-.1c.1-.044.209-.1.328-.16a3.933,3.933,0,0,1,.466-.2,1.615,1.615,0,0,1,.431-.091,1.053,1.053,0,0,1,.405.051,1.368,1.368,0,0,1,.764.716,1.086,1.086,0,0,1,.066.531,1.606,1.606,0,0,1-.181.549,3.136,3.136,0,0,1-.365.536,3.505,3.505,0,0,1-.472.469,2.016,2.016,0,0,1-.486.3" transform="translate(-5.871 -7.439)" fill="#fff"/>
    <path id="Path_8" data-name="Path 8" d="M31.68,30.031l-1.9,1.935L29.5,31.7l-.325-2.449-.959.975-.491-.482,1.79-1.821.328.325.329,2.341,1.017-1.034Z" transform="translate(-6.798 -6.845)" fill="#fff"/>
    <path id="Path_9" data-name="Path 9" d="M52.75,2A50.749,50.749,0,1,0,103.5,52.751,50.807,50.807,0,0,0,52.75,2m0,103.5A52.75,52.75,0,1,1,105.5,52.751,52.809,52.809,0,0,1,52.75,105.5" fill="#fff"/>
    <path id="Path_10" data-name="Path 10" d="M54.266,7.386a46.881,46.881,0,1,0,46.88,46.88,46.934,46.934,0,0,0-46.88-46.88m0,94.962a48.081,48.081,0,1,1,48.081-48.082,48.137,48.137,0,0,1-48.081,48.082" transform="translate(-1.516 -1.516)" fill="#fff"/>
    <path id="Path_11" data-name="Path 11" d="M34.894,26.8l-.844.734-1.713-.5-.01.008.984,1.133-.7.611-2.935-3.382.7-.611,1.868,2.152.009-.008L32.018,25.3l.837-.726.112,1.784Z" transform="translate(-7.275 -6.024)" fill="#fff"/>
    <path id="Path_12" data-name="Path 12" d="M37.774,25.216a1.632,1.632,0,0,1-1.211.356,1.756,1.756,0,0,1-1.35-1.894,1.7,1.7,0,0,1,.735-1.055,1.6,1.6,0,0,1,1.2-.349,1.511,1.511,0,0,1,1.005.657,1.6,1.6,0,0,1,.34,1.224,1.643,1.643,0,0,1-.724,1.062m-1.421-2a.622.622,0,0,0-.283.486,1,1,0,0,0,.229.629c.341.472.7.568,1.081.294.363-.261.368-.636.019-1.119q-.5-.686-1.045-.29" transform="translate(-8.628 -5.457)" fill="#fff"/>
    <path id="Path_13" data-name="Path 13" d="M40.43,20.284l-.205.426,1.038,1.679-.79.488-.736-1.186-.2.413-.4-.647.2-.41L38.115,19.07l.791-.49.921,1.486.2-.425Z" transform="translate(-9.345 -4.556)" fill="#fff"/>
    <path id="Path_14" data-name="Path 14" d="M45.208,20.623l-.78.414-.2-.384-.011.005a.986.986,0,0,1-.558.871.946.946,0,0,1-.729.106.893.893,0,0,1-.535-.471q-.413-.777.445-1.387l.675-.481a.458.458,0,0,0-.707-.187,1.838,1.838,0,0,0-.758.767l-.329-.621a2.243,2.243,0,0,1,.387-.406,2.831,2.831,0,0,1,.509-.358,1.142,1.142,0,0,1,1.748.535Zm-1.351-.675-.1-.18-.453.321c-.249.177-.319.37-.209.575a.34.34,0,0,0,.22.18.424.424,0,0,0,.312-.051.557.557,0,0,0,.294-.362.657.657,0,0,0-.069-.484" transform="translate(-10.229 -4.482)" fill="#fff"/>
    <rect id="Rectangle_2" data-name="Rectangle 2" width="0.955" height="4.237" transform="translate(35.841 11.132) rotate(-21.616)" fill="#fff"/>
    <path id="Path_15" data-name="Path 15" d="M54.432,16.975l-.887.279-.506-1.6c-.141-.447-.37-.62-.691-.519a.5.5,0,0,0-.324.3.714.714,0,0,0-.008.5l.519,1.645-.889.28-.91-2.884.89-.282.144.456.011,0a1.068,1.068,0,0,1,.76-.818q.958-.3,1.333.886Z" transform="translate(-12.44 -3.496)" fill="#fff"/>
    <path id="Path_16" data-name="Path 16" d="M57.483,11.917a.976.976,0,0,0-.353.009c-.29.069-.4.26-.326.577l.072.313.673-.156.155.67-.672.157.529,2.276-.906.211-.53-2.277-.5.117-.157-.672.5-.115-.086-.365a1.094,1.094,0,0,1,.139-.888,1.288,1.288,0,0,1,.822-.516,1.6,1.6,0,0,1,.473-.049Z" transform="translate(-13.602 -2.748)" fill="#fff"/>
    <path id="Path_17" data-name="Path 17" d="M61.162,15.655a1.628,1.628,0,0,1-1.239-.24,1.538,1.538,0,0,1-.6-1.071,1.532,1.532,0,0,1,.267-1.229,1.7,1.7,0,0,1,1.136-.6,1.611,1.611,0,0,1,1.232.241A1.51,1.51,0,0,1,62.55,13.8a1.606,1.606,0,0,1-.259,1.244,1.645,1.645,0,0,1-1.129.614m-.348-2.434a.623.623,0,0,0-.473.3.994.994,0,0,0-.083.664q.13.862.825.755c.443-.066.618-.4.528-.986-.085-.559-.349-.8-.8-.736" transform="translate(-14.538 -3.061)" fill="#fff"/>
    <path id="Path_18" data-name="Path 18" d="M66.6,12.829a.825.825,0,0,0-.4-.062.569.569,0,0,0-.457.258.967.967,0,0,0-.125.619l.106,1.441-.931.069-.224-3.018.931-.069.041.559h.012a.808.808,0,0,1,.75-.672.626.626,0,0,1,.232.018Z" transform="translate(-15.832 -2.93)" fill="#fff"/>
    <path id="Path_19" data-name="Path 19" d="M73.059,15.03l-.931-.023.044-1.725q.017-.659-.468-.67a.439.439,0,0,0-.379.187.807.807,0,0,0-.158.49l-.042,1.693-.933-.024.043-1.743c.011-.426-.142-.645-.46-.652a.456.456,0,0,0-.387.179.835.835,0,0,0-.156.511l-.042,1.681-.933-.025.075-3.023.934.023-.012.472h.012a1.146,1.146,0,0,1,.991-.521.872.872,0,0,1,.863.586,1.118,1.118,0,0,1,1.03-.539q.987.025.956,1.241Z" transform="translate(-16.736 -2.908)" fill="#fff"/>
    <path id="Path_20" data-name="Path 20" d="M78.261,15.639l-.876-.121.06-.431-.013,0a.979.979,0,0,1-.962.38.935.935,0,0,1-.651-.342.9.9,0,0,1-.16-.694q.122-.872,1.174-.864l.828,0q.067-.493-.464-.565a1.829,1.829,0,0,0-1.063.178l.1-.7a2.2,2.2,0,0,1,.553-.1,2.894,2.894,0,0,1,.62.008,1.143,1.143,0,0,1,1.105,1.457Zm-.7-1.338.029-.2-.553,0c-.307,0-.476.113-.506.343a.337.337,0,0,0,.073.276.439.439,0,0,0,.283.141.554.554,0,0,0,.449-.121.656.656,0,0,0,.226-.433" transform="translate(-18.548 -3.033)" fill="#fff"/>
    <path id="Path_21" data-name="Path 21" d="M82.08,16.088a1.371,1.371,0,0,1-.633-.023.889.889,0,0,1-.753-1.207l.289-1.355-.481-.1.144-.673.479.1.137-.639.964-.066-.189.9.664.141-.144.674-.665-.143-.254,1.2c-.064.308.024.488.269.54a.619.619,0,0,0,.316-.02Z" transform="translate(-19.739 -2.973)" fill="#fff"/>
    <path id="Path_22" data-name="Path 22" d="M86.8,14.528l-2.09,2.8q-.753,1.009-1.61.761a1.744,1.744,0,0,1-.515-.228l.206-.716a.791.791,0,0,0,.361.217.5.5,0,0,0,.574-.186l.257-.316-.34-3.242.994.287.03,1.925a2.415,2.415,0,0,1-.033.412l.011,0a2.678,2.678,0,0,1,.2-.356l1.062-1.615Z" transform="translate(-20.249 -3.338)" fill="#fff"/>
    <path id="Path_23" data-name="Path 23" d="M90.514,18.642l-1.045-.4-.36-1.747-.011,0-.541,1.4-.87-.335L89.3,13.372l.872.337-1.025,2.66.01,0,1.344-.979,1.033.4-1.522.935Z" transform="translate(-21.5 -3.279)" fill="#fff"/>
    <path id="Path_24" data-name="Path 24" d="M92.789,19.752l-.847-.393,1.273-2.744.847.393Zm1.054-3.373a.545.545,0,0,1-.291-.29.457.457,0,0,1,.007-.376.443.443,0,0,1,.281-.248.637.637,0,0,1,.7.326.477.477,0,0,1-.292.627.557.557,0,0,1-.41-.04" transform="translate(-22.543 -3.787)" fill="#fff"/>
    <path id="Path_25" data-name="Path 25" d="M96.915,21.983l-.808-.466,1.507-2.621.81.466Zm1.348-3.268A.541.541,0,0,1,98,18.4a.455.455,0,0,1,.041-.374.433.433,0,0,1,.3-.22.558.558,0,0,1,.4.077.569.569,0,0,1,.271.308.444.444,0,0,1-.042.373.454.454,0,0,1-.3.227.548.548,0,0,1-.4-.076" transform="translate(-23.564 -4.363)" fill="#fff"/>
    <path id="Path_26" data-name="Path 26" d="M102.574,25.9l-2.751-2.019.325-.443,3.474-1.061L102,21.181l.46-.626,2.619,1.923-.316.432-3.444,1.1,1.716,1.26Z" transform="translate(-24.476 -5.04)" fill="#fff"/>
    <path id="Path_27" data-name="Path 27" d="M106.065,29.183,105.4,28.6l.286-.326-.008-.008a.986.986,0,0,1-1.012-.214.941.941,0,0,1-.356-.644.9.9,0,0,1,.25-.666,1,1,0,0,1,1.455-.075l.688.46a.458.458,0,0,0-.077-.728,1.835,1.835,0,0,0-.984-.436l.463-.528a2.318,2.318,0,0,1,.518.219,2.782,2.782,0,0,1,.514.348,1.143,1.143,0,0,1,.119,1.824Zm.153-1.5.134-.152-.46-.309q-.38-.257-.612.009a.336.336,0,0,0-.09.269.428.428,0,0,0,.159.275.552.552,0,0,0,.442.146.661.661,0,0,0,.428-.236" transform="translate(-25.576 -6.236)" fill="#fff"/>
    <path id="Path_28" data-name="Path 28" d="M110.374,30.363a.8.8,0,0,0-.212-.345.565.565,0,0,0-.491-.181.974.974,0,0,0-.552.3l-1.029,1.016-.656-.664,2.152-2.125.656.663-.4.395.009.008a.808.808,0,0,1,1,.137.579.579,0,0,1,.137.189Z" transform="translate(-26.342 -6.956)" fill="#fff"/>
    <path id="Path_29" data-name="Path 29" d="M111.346,34.818l-1.767-2.06.294-.251,2.468-.117-.891-1.038.522-.449,1.663,1.936-.351.3-2.36.129.944,1.1Z" transform="translate(-26.868 -7.577)" fill="#fff"/>
    <path id="Path_30" data-name="Path 30" d="M112.652,38.58a1.062,1.062,0,0,1-.134-.115,1.384,1.384,0,0,1-.133-.153.589.589,0,0,1-.129-.4.481.481,0,0,1,.22-.349.638.638,0,0,1,.173-.086.873.873,0,0,1,.211-.038.946.946,0,0,1,.238.017,1.166,1.166,0,0,1,.251.077l.271.37a1.438,1.438,0,0,0-.467-.082.509.509,0,0,0-.294.079.2.2,0,0,0-.091.127.193.193,0,0,0,.042.139,1.171,1.171,0,0,0,.077.091.956.956,0,0,0,.093.082Zm1.216-.337-.52-.713.35-.257-.007-.009a.986.986,0,0,1-.942-.427.949.949,0,0,1-.206-.707.9.9,0,0,1,.389-.6,1,1,0,0,1,1.436.244l.572.6a.458.458,0,0,0,.083-.726,1.826,1.826,0,0,0-.867-.64l.568-.415a2.29,2.29,0,0,1,.457.326,2.719,2.719,0,0,1,.426.453,1.141,1.141,0,0,1-.279,1.806Zm.476-1.434.164-.12-.382-.4q-.315-.332-.6-.125a.335.335,0,0,0-.146.244.422.422,0,0,0,.1.3.547.547,0,0,0,.4.241.664.664,0,0,0,.469-.139" transform="translate(-27.524 -8.482)" fill="#fff"/>
    <path id="Path_31" data-name="Path 31" d="M116.657,42.516l-.482-.8.359-.215-.007-.01a1.05,1.05,0,0,1-.9-.55,1.149,1.149,0,0,1-.126-.989,1.658,1.658,0,0,1,.781-.872,1.809,1.809,0,0,1,1.225-.294,1.245,1.245,0,0,1,.9.623.848.848,0,0,1,.061.915l0,.011,1.543-.927.482.8Zm.79-1.542.2-.117a.716.716,0,0,0,.331-.4.605.605,0,0,0-.52-.773,1.133,1.133,0,0,0-.663.2.985.985,0,0,0-.44.461.6.6,0,0,0,.488.791.952.952,0,0,0,.609-.158" transform="translate(-28.304 -9.506)" fill="#fff"/>
    <path id="Path_32" data-name="Path 32" d="M118.619,46.486l-1.193-2.44.348-.171,2.418.509-.6-1.23.618-.3,1.12,2.293-.414.2-2.317-.468.636,1.3Z" transform="translate(-28.792 -10.507)" fill="#fff"/>
    <path id="Path_33" data-name="Path 33" d="M120.287,50.439l-.322-.821.4-.16,0-.01a.992.992,0,0,1-.8-.653.95.95,0,0,1-.021-.737.9.9,0,0,1,.528-.478q.819-.324,1.328.6l.4.724a.457.457,0,0,0,.266-.681,1.841,1.841,0,0,0-.676-.839l.654-.257a2.273,2.273,0,0,1,.36.431,2.863,2.863,0,0,1,.3.546,1.143,1.143,0,0,1-.728,1.676Zm.822-1.267.189-.075-.268-.485q-.22-.4-.547-.274a.342.342,0,0,0-.2.2.426.426,0,0,0,.014.316.557.557,0,0,0,.327.332.652.652,0,0,0,.488-.014" transform="translate(-29.294 -11.554)" fill="#fff"/>
    <path id="Path_34" data-name="Path 34" d="M121.759,55.138l-.263-.893,1.614-.473q.675-.2.533-.68a.5.5,0,0,0-.29-.33.709.709,0,0,0-.5-.019l-1.655.487-.264-.9,2.9-.853.263.9-.46.134,0,.011a1.069,1.069,0,0,1,.8.777q.283.964-.914,1.315Z" transform="translate(-29.652 -12.623)" fill="#fff"/>
    <path id="Path_35" data-name="Path 35" d="M122.457,58.019l-.2-.911,2.956-.648.2.911Zm3.323-1.2a.532.532,0,0,1,.054-.408.453.453,0,0,1,.3-.221.438.438,0,0,1,.368.074.629.629,0,0,1,.167.757.444.444,0,0,1-.3.22.45.45,0,0,1-.373-.072.549.549,0,0,1-.216-.35" transform="translate(-29.976 -13.774)" fill="#fff"/>
    <path id="Path_36" data-name="Path 36" d="M123.154,62.108l-.134-.873.429-.066,0-.011a.985.985,0,0,1-.639-.812.945.945,0,0,1,.142-.724.9.9,0,0,1,.62-.351q.87-.135,1.163.876l.233.795c.326-.049.463-.253.408-.606a1.833,1.833,0,0,0-.475-.968l.694-.107a2.262,2.262,0,0,1,.258.5,2.808,2.808,0,0,1,.168.6,1.143,1.143,0,0,1-1.078,1.477Zm1.08-1.054.2-.031-.153-.533c-.085-.294-.242-.423-.475-.386a.339.339,0,0,0-.242.149.426.426,0,0,0-.055.311.556.556,0,0,0,.246.4.657.657,0,0,0,.478.093" transform="translate(-30.107 -14.528)" fill="#fff"/>
    <path id="Path_37" data-name="Path 37" d="M44.587,118.093,42.2,120.534l-.852-.482.562-1.9a2.051,2.051,0,0,1,.165-.392l-.016-.009a3.106,3.106,0,0,1-.253.328l-1.375,1.456-.842-.477.88-3.29.828.469-.7,2.076a3.122,3.122,0,0,1-.141.343l.014.008a2.357,2.357,0,0,1,.233-.3l1.506-1.606.774.438-.652,2.1c-.017.052-.066.166-.147.344l.017.011c.069-.1.144-.2.225-.3l1.4-1.679Z" transform="translate(-9.708 -28.385)" fill="#fff"/>
    <path id="Path_38" data-name="Path 38" d="M47.641,122.831l1.638-4.317,1.442.548a1.778,1.778,0,0,1,.919.651.937.937,0,0,1,.074.882,1,1,0,0,1-.449.528,1.2,1.2,0,0,1-.692.153l0,.012a1.144,1.144,0,0,1,.546.6,1.071,1.071,0,0,1-.009.786,1.273,1.273,0,0,1-.747.792,1.644,1.644,0,0,1-1.2-.055Zm1.6-1.516-.432,1.139.483.183a.764.764,0,0,0,.544.027.581.581,0,0,0,.337-.362.539.539,0,0,0-.018-.471.766.766,0,0,0-.426-.33Zm.662-1.747-.387,1.025.391.149a.655.655,0,0,0,.491.017.555.555,0,0,0,.312-.34c.12-.316-.037-.559-.472-.725Z" transform="translate(-11.681 -29.058)" fill="#fff"/>
    <path id="Path_39" data-name="Path 39" d="M53.7,124.87l-.9-.27.949-3.158.894.269Zm.657-3.791a.522.522,0,0,1-.327-.257.514.514,0,0,1-.037-.4.5.5,0,0,1,.251-.315.59.59,0,0,1,.743.223.5.5,0,0,1,.035.4.513.513,0,0,1-.252.321.528.528,0,0,1-.414.03" transform="translate(-12.946 -29.434)" fill="#fff"/>
    <path id="Path_40" data-name="Path 40" d="M58.386,125.15l-1.923-.448a.715.715,0,0,0,.648.887,1.514,1.514,0,0,0,.911-.051l-.165.715a2.149,2.149,0,0,1-1.116-.008,1.465,1.465,0,0,1-1.008-.688,1.764,1.764,0,0,1-.115-1.295,1.857,1.857,0,0,1,.72-1.169,1.4,1.4,0,0,1,1.156-.223,1.259,1.259,0,0,1,.9.648,1.737,1.737,0,0,1,.09,1.214Zm-.7-.8q.159-.691-.352-.809a.486.486,0,0,0-.424.109.979.979,0,0,0-.309.448Z" transform="translate(-13.62 -30.116)" fill="#fff"/>
    <rect id="Rectangle_3" data-name="Rectangle 3" width="4.881" height="0.933" transform="translate(45.311 96.494) rotate(-80.561)" fill="#fff"/>
    <path id="Path_41" data-name="Path 41" d="M62.375,127.085l.091-.819a1.97,1.97,0,0,0,.432.275,1.415,1.415,0,0,0,.422.12.842.842,0,0,0,.4-.031.237.237,0,0,0,.166-.208.206.206,0,0,0-.046-.166.637.637,0,0,0-.153-.131,1.593,1.593,0,0,0-.212-.109c-.077-.036-.152-.073-.223-.114a1.982,1.982,0,0,1-.3-.192.968.968,0,0,1-.207-.222.789.789,0,0,1-.112-.276,1.15,1.15,0,0,1-.011-.354.924.924,0,0,1,.492-.755,1.3,1.3,0,0,1,.44-.139,2.111,2.111,0,0,1,.5-.006,2.554,2.554,0,0,1,.4.08,2.687,2.687,0,0,1,.4.142l-.087.78a1.489,1.489,0,0,0-.358-.211,1.642,1.642,0,0,0-.389-.1.845.845,0,0,0-.174,0,.6.6,0,0,0-.148.035.289.289,0,0,0-.107.075.215.215,0,0,0-.047.117.222.222,0,0,0,.035.159.436.436,0,0,0,.127.125,1.124,1.124,0,0,0,.18.1c.066.033.133.066.2.1a2.7,2.7,0,0,1,.319.189,1.081,1.081,0,0,1,.235.225.78.78,0,0,1,.136.28.98.98,0,0,1,.017.364,1.014,1.014,0,0,1-.171.486.961.961,0,0,1-.345.3,1.34,1.34,0,0,1-.463.14,2.3,2.3,0,0,1-.529,0,2.5,2.5,0,0,1-.9-.268" transform="translate(-15.294 -30.39)" fill="#fff"/>
    <path id="Path_42" data-name="Path 42" d="M69.653,127.163l-1.12-.036-.911-1.667H67.61l-.054,1.635-.932-.031.162-4.878.933.03-.1,3.107h.012l.951-1.492,1.106.035-1.134,1.513Z" transform="translate(-16.336 -29.958)" fill="#fff"/>
    <path id="Path_43" data-name="Path 43" d="M74.475,127.476l-.928.051-.027-.5-.015,0a1.041,1.041,0,0,1-.891.632q-1.051.06-1.125-1.328l-.11-1.987.93-.051.1,1.9c.026.464.207.689.546.67a.485.485,0,0,0,.39-.214.811.811,0,0,0,.122-.528l-.1-1.885.93-.05Z" transform="translate(-17.501 -30.449)" fill="#fff"/>
    <rect id="Rectangle_4" data-name="Rectangle 4" width="1.615" height="0.711" transform="matrix(0.991, -0.13, 0.13, 0.991, 57.882, 94.797)" fill="#fff"/>
    <path id="Path_44" data-name="Path 44" d="M80.546,126.241l-.967-4.515,1.51-.322a1.8,1.8,0,0,1,1.123.048.938.938,0,0,1,.54.7.992.992,0,0,1-.09.688,1.206,1.206,0,0,1-.5.5l0,.014a1.129,1.129,0,0,1,.782.2,1.065,1.065,0,0,1,.419.663,1.28,1.28,0,0,1-.2,1.072,1.648,1.648,0,0,1-1.034.6Zm.128-3.967.228,1.07.41-.087a.651.651,0,0,0,.423-.251.564.564,0,0,0,.078-.456c-.071-.331-.336-.448-.788-.351Zm.391,1.828.254,1.19.506-.108a.747.747,0,0,0,.471-.274.578.578,0,0,0,.088-.485.543.543,0,0,0-.272-.386.77.77,0,0,0-.537-.047Z" transform="translate(-19.512 -29.751)" fill="#fff"/>
    <path id="Path_45" data-name="Path 45" d="M85.154,121.217a.517.517,0,0,1-.663-.357.5.5,0,0,1,.041-.4.594.594,0,0,1,.745-.217.5.5,0,0,1,.247.318.512.512,0,0,1-.037.408.522.522,0,0,1-.332.248m1.506,3.542-.9.258-.918-3.166.9-.26Z" transform="translate(-20.711 -29.468)" fill="#fff"/>
    <path id="Path_46" data-name="Path 46" d="M90.819,123.771l-.829.3-.162-.445-.011,0a.973.973,0,0,1-.66.827.9.9,0,0,1-.744-.022,1.033,1.033,0,0,1-.483-.6,1.045,1.045,0,0,1,.608-1.4l.732-.39a.477.477,0,0,0-.688-.326,1.732,1.732,0,0,0-.849.678l-.26-.722a2.294,2.294,0,0,1,.436-.362,2.616,2.616,0,0,1,.551-.287q1.219-.437,1.695.887Zm-1.279-.963-.074-.21-.49.257c-.272.143-.365.335-.278.576a.386.386,0,0,0,.2.229.4.4,0,0,0,.32.005.53.53,0,0,0,.335-.332.743.743,0,0,0-.014-.526" transform="translate(-21.447 -29.648)" fill="#fff"/>
    <path id="Path_47" data-name="Path 47" d="M92.92,119.775l-.255.412.858,1.971-.853.372-.608-1.4-.248.4-.331-.762.249-.395-1.011-2.324.853-.371.76,1.748.255-.414Z" transform="translate(-22.244 -28.855)" fill="#fff"/>
    <path id="Path_48" data-name="Path 48" d="M97.309,119.274l-1.753.9a.714.714,0,0,0,1.067.258,1.507,1.507,0,0,0,.662-.631l.336.652a2.142,2.142,0,0,1-.856.717,1.466,1.466,0,0,1-1.214.129,1.766,1.766,0,0,1-.925-.913,1.853,1.853,0,0,1-.207-1.356,1.393,1.393,0,0,1,.735-.92,1.271,1.271,0,0,1,1.107-.088,1.74,1.74,0,0,1,.854.867Zm-1.054-.158c-.217-.42-.481-.55-.794-.389a.489.489,0,0,0-.251.359.972.972,0,0,0,.054.54Z" transform="translate(-23.137 -28.917)" fill="#fff"/>
    <path id="Path_49" data-name="Path 49" d="M97.747,115.732a.522.522,0,0,1-.411.068.512.512,0,0,1-.321-.245.481.481,0,0,1-.062-.4.518.518,0,0,1,.257-.323.531.531,0,0,1,.408-.073.485.485,0,0,1,.319.243.507.507,0,0,1,.069.4.527.527,0,0,1-.258.326m2.326,2.993a1.894,1.894,0,0,1,.319,1.171,1.108,1.108,0,0,1-.586.86,1.216,1.216,0,0,1-.433.146l-.411-.685a.689.689,0,0,0,.359-.075q.378-.226-.009-.872l-1.7-2.848.8-.478Z" transform="translate(-23.768 -28.135)" fill="#fff"/>
    <line id="Line_1" data-name="Line 1" x1="0.001" transform="translate(11.962 63.784)" fill="none" stroke="#004c90" stroke-linecap="round" stroke-linejoin="round"/>
    <path id="Path_50" data-name="Path 50" d="M61.5,43a7.009,7.009,0,0,0-1.1.487v8.258a2.82,2.82,0,0,1,.167-.583,3.957,3.957,0,0,1,.937-1.371V43.06c0-.02,0-.036-.006-.056" transform="translate(-14.811 -10.544)" fill="#fff"/>
    <path id="Path_51" data-name="Path 51" d="M79.305,55.233c.08-.139.153-.267.223-.389V52.862a5.854,5.854,0,0,1-1.105-.381V56.8Z" transform="translate(-19.229 -12.868)" fill="#fff"/>
    <path id="Path_52" data-name="Path 52" d="M78.424,70.422a17.569,17.569,0,0,1,1.105,1.37V59.843c-.386.677-.756,1.334-1.105,1.962Z" transform="translate(-19.229 -14.673)" fill="#fff"/>
    <path id="Path_53" data-name="Path 53" d="M58.778,37.133a4.306,4.306,0,0,0-3.4-1.489l-2-.156V31.344H78.147v4.143l-1.935.156a4.351,4.351,0,0,0-3.428,1.528,6.727,6.727,0,0,0-.771,2.886v3.366a11.6,11.6,0,0,0,1.1.906V40.118a5.476,5.476,0,0,1,.571-2.313A3.377,3.377,0,0,1,76.3,36.744l1.938-.155a1.1,1.1,0,0,0,1.017-1.1V31.344a1.106,1.106,0,0,0-1.106-1.1H53.381a1.105,1.105,0,0,0-1.1,1.1v4.143a1.105,1.105,0,0,0,1.02,1.1l2,.155a3.351,3.351,0,0,1,2.573,1.021,3.347,3.347,0,0,1,.389,1.2,10.593,10.593,0,0,1,1.034-.454,4,4,0,0,0-.516-1.382" transform="translate(-12.818 -7.415)" fill="#fff"/>
    <path id="Path_54" data-name="Path 54" d="M61.508,61.924V54.618l-.659,1.032-.361-.47a.512.512,0,0,1-.085-.2V61.91a4.866,4.866,0,0,0,1.105.014" transform="translate(-14.81 -13.392)" fill="#fff"/>
    <path id="Path_55" data-name="Path 55" d="M61.508,69.812c-.368.013-.737.043-1.105.083v9.416c.368.115.737.234,1.105.371Z" transform="translate(-14.81 -17.117)" fill="#fff"/>
    <path id="Path_56" data-name="Path 56" d="M79.528,79.994v-.309A14.825,14.825,0,0,0,78.423,78.2v3.08a11.048,11.048,0,0,1,1.105-1.284" transform="translate(-19.229 -19.173)" fill="#fff"/>
    <path id="Path_57" data-name="Path 57" d="M78.424,92.652v.469a9.663,9.663,0,0,0,1.105.243V92.256a2.428,2.428,0,0,1-1.105.4" transform="translate(-19.229 -22.62)" fill="#fff"/>
    <path id="Path_58" data-name="Path 58" d="M72.767,97.1a4.332,4.332,0,0,0,3.444,1.528l1.936.193v4.1H53.383v-4.1l2.034-.193a4.259,4.259,0,0,0,3.361-1.492,6.6,6.6,0,0,0,.737-2.816v-5.05c-.372.337-.74.666-1.1.981v4.01a5.411,5.411,0,0,1-.54,2.246,3.305,3.305,0,0,1-2.542,1.019l-2.052.2a1.1,1.1,0,0,0-1,1.1v4.1a1.106,1.106,0,0,0,1.106,1.106H78.147a1.105,1.105,0,0,0,1.105-1.106v-4.1a1.1,1.1,0,0,0-.995-1.1l-1.936-.195a3.4,3.4,0,0,1-2.644-1.055,3.317,3.317,0,0,1-.376-1.12,11.253,11.253,0,0,1-1.146-.106,4.931,4.931,0,0,0,.611,1.854" transform="translate(-12.818 -21.888)" fill="#fff"/>
    <path id="Path_59" data-name="Path 59" d="M60.4,86.949c.218-.2.434-.4.653-.617-.2-.1-.423-.2-.653-.294Z" transform="translate(-14.81 -21.096)" fill="#fff"/>
    <path id="Path_60" data-name="Path 60" d="M78.424,84.815V89.1a1.666,1.666,0,0,0,1.105-.573v-5.4a11.131,11.131,0,0,0-1.105,1.689" transform="translate(-19.229 -20.382)" fill="#fff"/>
    <path id="Path_61" data-name="Path 61" d="M61.508,66.131a6.154,6.154,0,0,1-1.105.014V67.42a9.166,9.166,0,0,1,1.105-.252Z" transform="translate(-14.81 -16.215)" fill="#fff"/>
    <path id="Path_62" data-name="Path 62" d="M81.428,69.624a4.114,4.114,0,0,0-5.046-3.717,12.376,12.376,0,0,0-4.6,1.836l-.008-.013-.229.16a21.34,21.34,0,0,0-2.4,1.79,18.408,18.408,0,0,0-5.863-6.722l.288-.538c1.375-2.594,2.935-5.532,5.082-9.2l.206-.34c.967-1.587,1.271-2.086,2.109-3.243a12.385,12.385,0,0,0,6.954-3.7c1.375-1.365,2.109-2.794,1.962-3.821a1.293,1.293,0,0,0-1.573-1.191c-1.645.235-4.723,3.126-7.679,7.209-2-.288-2.825-.678-5.325-3.2-2.258-2.35-5.02-4.81-9.2-4.207a11.261,11.261,0,0,0-9.2,12.5c.59,4.125,3.914,6.945,7.566,6.425a6.888,6.888,0,0,0,4.412-2.652,6.579,6.579,0,0,0,1.378-4.878,4.567,4.567,0,0,0-1.722-3.063,3.086,3.086,0,0,0-2.378-.585,3.493,3.493,0,0,0-2.72,2.191c-.067.172-.276.749-.109.965l.179.236.56-.876A3.154,3.154,0,0,1,56,49.562a1.89,1.89,0,0,1,1.488.346,3.9,3.9,0,0,1,1.4,2.655,5.23,5.23,0,0,1-4.45,6.114c-3.079.435-5.781-1.917-6.29-5.484a11.016,11.016,0,0,1,1.626-7.368A8.226,8.226,0,0,1,55.369,41.9a6.353,6.353,0,0,1,5.855,2.442l1.941,2.189c3,3.343,5.078,3.416,6.21,3.313a22.7,22.7,0,0,0-1.632,2.584l-3.779,6.733-1.728,3.22c-4.749-2.267-9.73-1.476-11.106.092l-.423.483.625-.144A14.736,14.736,0,0,1,61.341,64a58.92,58.92,0,0,1-5.789,9.314,18.967,18.967,0,0,0-10.608-1.648C36.35,72.892,29.9,77.711,30.575,82.4c.328,2.286,2.347,3.625,5.295,3.625a11.2,11.2,0,0,0,1.571-.117C43.831,85,48.724,82.275,55.458,75.879a12.251,12.251,0,0,1,2.158,1.8c2.5,2.362,6.285,5.934,11.58,5.526a14.414,14.414,0,0,0,9.487-5.74c2.086-2.593,3.086-5.451,2.744-7.842M69.355,75.116a5.762,5.762,0,0,1-1.084,2.755,2.073,2.073,0,0,1-1.724,1.015.84.84,0,0,1-.734-.518,3.08,3.08,0,0,1-.109-1.553,9.644,9.644,0,0,1,2.865-5.361,6.523,6.523,0,0,1,.787,3.661m-4.515,2.063a3.032,3.032,0,0,0,.24,1.759,1.523,1.523,0,0,0,1.2.846A2.839,2.839,0,0,0,68.8,78.3a8.73,8.73,0,0,0,1.4-3.926,7.164,7.164,0,0,0-.614-3.675c-.017-.042-.033-.084-.049-.122a13.91,13.91,0,0,1,6.611-3.511c2.362-.337,3.849.805,4.194,3.218.484,3.384-3.557,9.911-8.545,10.624a11.336,11.336,0,0,1-8.624-1.869,19.07,19.07,0,0,1-2.906-2.307,22.357,22.357,0,0,0-3.8-2.948c.734-1.065,4.273-6.233,5.97-9.318A28.2,28.2,0,0,1,68.158,70.7a10.832,10.832,0,0,0-3.317,6.478m7.2-29.081c1.842-3.033,4.529-5.7,5.983-5.909a.689.689,0,0,1,.115-.01.512.512,0,0,1,.3.083.526.526,0,0,1,.2.383c.111.769-.7,2-2.114,3.208a9.354,9.354,0,0,1-4.066,2.2c-.108.016-.242.035-.418.048M54.081,75.149C48.463,80.626,43.5,83.514,38.494,84.23c-3.9.555-5.857-.239-6.181-2.5-.5-3.474,4.621-7.557,10.53-8.4a14.867,14.867,0,0,1,2.069-.133,21.757,21.757,0,0,1,9.169,1.958" transform="translate(-7.485 -9.963)" fill="#fff"/>
  </g>
</svg>
